<svg id="DabApps_Logo" data-name="DabApps Logo" xmlns="http://www.w3.org/2000/svg" viewBox="0 0 650.02 246.35"><defs><style>.cls-1{fill:#d4153b;}.cls-2{fill:#16151d;}</style></defs><title>DabAppsLogoFROM AI</title><path id="apps" class="cls-1" d="M342.46,193.82h-.78c-6.47,7.83-14.3,13.31-25.47,13.31-16.26,0-28-11.15-28-25.44,0-16.63,12.14-30.72,53.48-32.09v-2.15c0-12.13-5.09-17.22-18-17.22-9.21,0-20.38,4.11-30,9.59l-4.7-18.2a75.13,75.13,0,0,1,37.81-10.56c27.82,0,38.59,12.32,38,37.17v32.29c0,6.85,1.17,7.83,8,8.22l-1.77,17.41C353.83,208.11,345.79,202.83,342.46,193.82Zm-.78-11.34V161.74c-22.53,2.73-30.76,7.23-30.76,16.82,0,6.85,5.29,11.74,13.52,11.74A23.12,23.12,0,0,0,341.68,182.48Zm63.66-59.88c6.07-5.87,14.3-11.54,25.27-11.54,23.9,0,39.57,19.37,39.57,47.15,0,28.77-20,48.72-45.64,48.72a70.93,70.93,0,0,1-19.2-2.54v42.85H382.23V114.38l23.11-3.13Zm0,15.26v45.59c4.31,3.33,10.19,5.09,17,5.09,15.48,0,24.3-12.52,24.3-29.35,0-17.61-8.43-28.76-22.73-28.76C416.31,130.43,410.43,133.36,405.34,137.86ZM506.42,122.6c6.07-5.87,14.3-11.54,25.27-11.54,23.9,0,39.57,19.37,39.57,47.15,0,28.77-20,48.72-45.64,48.72a70.93,70.93,0,0,1-19.2-2.54v42.85H483.3V114.38l23.12-3.13Zm0,15.26v45.59c4.31,3.33,10.19,5.09,17,5.09,15.48,0,24.3-12.52,24.3-29.35,0-17.61-8.43-28.76-22.73-28.76C517.39,130.43,511.51,133.36,506.42,137.86ZM650,178c0-17.61-13.52-24.27-30.76-28.38-10.58-2.54-18.22-4.89-18.22-11.74,0-5.87,5.1-9,13.52-9,8,0,19.59,2.94,28.41,7.44l5.09-18c-8.42-4.31-21.74-7.24-32.91-7.24-21.75,0-36,11.15-36,28.17s13.52,24.07,30.56,28c10.58,2.55,18.22,5.09,18.22,12.14,0,6.26-5.87,10-14.89,10-10,0-21.54-3.32-30.56-8.41l-5.09,18c9,5.09,23.31,8.42,35.07,8.42C635.51,207.33,650,194.8,650,178Z" transform="translate(0.01 -0.9)"/><path id="dab" class="cls-2" d="M64.84,114V73.49L88,70.36V204.19H64.84v-8.8c-6.08,5.87-14.3,11.74-25.47,11.74C15.47,207.13,0,187.76,0,159.78,0,131,20,111.06,45.64,111.06A68,68,0,0,1,64.84,114Zm0,20.74a28.12,28.12,0,0,0-17.05-5.28c-15.47,0-24.29,12.72-24.29,29.35,0,17.61,8.82,28.76,22.73,28.76a26.25,26.25,0,0,0,18.61-7.43Zm89.71,59.09h-.78c-6.46,7.83-14.3,13.31-25.47,13.31-16.26,0-28-11.15-28-25.44,0-16.63,12.15-30.72,53.48-32.09v-2.15c0-12.13-5.09-17.22-18-17.22-9.21,0-20.38,4.11-30,9.59l-4.71-18.2a75.13,75.13,0,0,1,37.81-10.56c27.82,0,38.59,12.32,38,37.17v32.29c0,6.85,1.17,7.83,8,8.22l-1.76,17.41C165.92,208.11,157.88,202.83,154.55,193.82Zm-.78-11.34V161.74C131.24,164.47,123,169,123,178.56c0,6.85,5.29,11.74,13.52,11.74A23.12,23.12,0,0,0,153.77,182.48Zm128.51-24.27c0,28.77-20,48.72-45.65,48.72a72.13,72.13,0,0,1-20.18-3.13l-22.13,3.33V73.49l23.11-3.13V122.6c6.08-5.87,14.3-11.54,25.27-11.54C266.6,111.06,282.28,130.43,282.28,158.21Zm-23.51,1c0-17.61-8.43-28.76-22.73-28.76-7.64,0-13.51,2.93-18.61,7.43v45.59c4.31,3.33,10.19,5.09,17,5.09C250,188.54,258.77,176,258.77,159.19Z" transform="translate(0.01 -0.9)"/><ellipse id="bottom_dot" data-name="bottom dot" class="cls-1" cx="205.87" cy="47.53" rx="12.85" ry="12.84"/><ellipse id="top_dot" data-name="top dot" class="cls-1" cx="205.87" cy="12.84" rx="12.85" ry="12.84"/></svg>