<?xml version="1.0" encoding="UTF-8" standalone="no"?>
<svg width="717px" height="144px" viewBox="0 0 717 144" version="1.1" xmlns="http://www.w3.org/2000/svg" xmlns:xlink="http://www.w3.org/1999/xlink">
    <!-- Generator: Sketch 3.6.1 (26313) - http://www.bohemiancoding.com/sketch -->
    <title>Group</title>
    <desc>Created with Sketch.</desc>
    <defs></defs>
    <g id="Page-1" stroke="none" stroke-width="1" fill="none" fill-rule="evenodd">
        <g id="Group">
            <g id="Sorenson-Media-Horz-Primary-FullColor">
                <path d="M152.564,75.674 C153.726,83.084 159.102,85.989 167.093,85.989 C174.067,85.989 178.861,83.664 178.861,80.032 C178.861,77.417 176.681,75.093 172.032,74.366 L157.068,71.751 C146.462,69.862 136.583,64.051 136.583,51.266 C136.583,36.737 148.786,28.165 166.657,28.165 C178.57,28.165 196.44,32.233 197.893,51.847 L179.442,51.992 C179.006,45.745 173.195,43.275 166.657,43.275 C159.683,43.275 156.342,46.036 156.342,49.232 C156.342,51.847 158.23,54.607 164.622,55.769 L177.262,57.804 C188.595,59.838 198.33,65.068 198.33,78.289 C198.33,93.835 184.818,101.826 166.947,101.826 C150.82,101.826 135.565,95.288 134.113,75.528 L152.564,75.674" id="Fill-1" fill="#2D2958"></path>
                <path d="M259.202,64.922 C259.202,54.607 252.519,46.616 242.058,46.616 C231.452,46.616 224.624,54.607 224.624,64.922 C224.624,75.383 231.452,83.81 242.058,83.81 C252.519,83.81 259.202,75.383 259.202,64.922 L259.202,64.922 Z M279.105,64.922 C279.105,86.135 263.415,101.826 242.058,101.826 C220.555,101.826 204.719,86.135 204.719,64.922 C204.719,43.856 220.555,28.601 242.058,28.601 C263.415,28.601 279.105,43.856 279.105,64.922 L279.105,64.922 Z" id="Fill-2" fill="#2D2958"></path>
                <path d="M307.143,37.899 C313.391,32.088 321.236,28.892 331.551,28.892 L331.551,48.069 C320.655,48.505 312.954,51.701 307.143,58.094 L307.143,99.646 L286.949,99.646 L286.949,30.054 L307.143,30.054 L307.143,37.899" id="Fill-3" fill="#2D2958"></path>
                <path d="M355.376,58.094 L386.903,58.094 C385.74,49.377 380.51,44.583 372.374,44.583 C362.64,44.583 357.264,50.249 355.376,58.094 L355.376,58.094 Z M406.516,70.007 L355.23,70.007 C356.829,78.144 362.204,84.536 373.245,84.536 C378.912,84.536 382.834,82.793 385.014,79.306 L406.081,79.306 C402.303,92.672 389.228,101.826 372.81,101.826 C350.435,101.826 335.326,85.699 335.326,64.922 C335.326,43.42 350.291,27.874 372.229,27.874 C392.133,27.874 406.952,41.967 406.952,63.47 C406.952,66.375 406.807,67.974 406.516,70.007 L406.516,70.007 Z" id="Fill-4" fill="#2D2958"></path>
                <path d="M486.856,61.436 L486.856,99.646 L466.661,99.646 L466.661,63.179 C466.661,52.137 461.14,46.18 451.696,46.18 C446.611,46.18 441.09,49.232 436.441,54.898 L436.441,99.646 L416.247,99.646 L416.247,30.054 L436.441,30.054 L436.441,34.994 C442.107,30.49 448.5,27.874 456.345,27.874 C474.651,27.874 486.856,41.096 486.856,61.436" id="Fill-5" fill="#2D2958"></path>
                <path d="M511.843,75.674 C513.005,83.084 518.381,85.989 526.372,85.989 C533.345,85.989 538.14,83.664 538.14,80.032 C538.14,77.417 535.96,75.093 531.311,74.366 L516.346,71.751 C505.741,69.862 495.861,64.051 495.861,51.266 C495.861,36.737 508.065,28.165 525.935,28.165 C537.849,28.165 555.719,32.233 557.172,51.847 L538.721,51.992 C538.284,45.745 532.473,43.275 525.935,43.275 C518.962,43.275 515.62,46.036 515.62,49.232 C515.62,51.847 517.509,54.607 523.901,55.769 L536.541,57.804 C547.873,59.838 557.608,65.068 557.608,78.289 C557.608,93.835 544.097,101.826 526.226,101.826 C510.099,101.826 494.844,95.288 493.392,75.528 L511.843,75.674" id="Fill-6" fill="#2D2958"></path>
                <path d="M618.48,64.922 C618.48,54.607 611.797,46.616 601.337,46.616 C590.731,46.616 583.902,54.607 583.902,64.922 C583.902,75.383 590.731,83.81 601.337,83.81 C611.797,83.81 618.48,75.383 618.48,64.922 L618.48,64.922 Z M638.384,64.922 C638.384,86.135 622.693,101.826 601.337,101.826 C579.834,101.826 563.997,86.135 563.997,64.922 C563.997,43.856 579.834,28.601 601.337,28.601 C622.693,28.601 638.384,43.856 638.384,64.922 L638.384,64.922 Z" id="Fill-7" fill="#2D2958"></path>
                <path d="M716.836,61.436 L716.836,99.646 L696.642,99.646 L696.642,63.179 C696.642,52.137 691.12,46.18 681.677,46.18 C676.592,46.18 671.071,49.232 666.422,54.898 L666.422,99.646 L646.227,99.646 L646.227,30.054 L666.422,30.054 L666.422,34.994 C672.088,30.49 678.48,27.874 686.326,27.874 C704.632,27.874 716.836,41.096 716.836,61.436" id="Fill-8" fill="#2D2958"></path>
                <path d="M167.201,143.808 L162.51,143.808 L162.51,123.177 L152.148,138.485 L149.167,138.485 L138.707,123.045 L138.805,143.808 L134.113,143.808 L134.113,113.895 L137.534,113.895 L150.633,133.294 L163.731,113.895 L167.201,113.895 L167.201,143.808" id="Fill-9" fill="#899796"></path>
                <path d="M185.631,127.055 L202.64,127.055 L202.64,130.925 L185.631,130.925 L185.631,139.943 L204.595,139.943 L204.595,143.814 L180.989,143.814 L180.989,113.902 L204.595,113.902 L204.595,117.773 L185.631,117.773 L185.631,127.055" id="Fill-10" fill="#899796"></path>
                <path d="M228.938,139.943 C236.318,139.943 241.743,135.193 241.743,128.682 C241.743,122.436 236.318,117.773 228.938,117.773 L221.557,117.773 L221.557,139.943 L228.938,139.943 L228.938,139.943 Z M228.938,113.902 C239.153,113.902 246.533,120.104 246.533,128.682 C246.533,137.48 239.153,143.814 228.938,143.814 L216.914,143.814 L216.914,113.902 L228.938,113.902 L228.938,113.902 Z" id="Fill-11" fill="#899796"></path>
                <path d="M257.632,113.902 L262.275,113.902 L262.275,143.814 L257.632,143.814 L257.632,113.902 Z" id="Fill-12" fill="#899796"></path>
                <path d="M290.135,118.784 L283.684,132.245 L296.586,132.245 L290.135,118.784 L290.135,118.784 Z M281.826,136.116 L278.111,143.814 L273.126,143.814 L287.936,113.726 L292.334,113.726 L307.143,143.814 L302.159,143.814 L298.443,136.116 L281.826,136.116 L281.826,136.116 Z" id="Fill-13" fill="#899796"></path>
                <path d="M58.024,17.456 C74.39,17.456 90.325,18.925 103.754,21.625 C85.303,8.649 60.978,1.518 44.006,0.708 C43.285,0.673 42.707,1.254 42.462,2.256 C41.567,5.918 40.941,11.536 40.578,18.019 C46.273,17.649 52.12,17.456 58.024,17.456" id="Fill-14" fill="#2D2958"></path>
                <path d="M111.682,32.481 C111.658,32.481 111.634,32.482 111.61,32.483 C91.515,33.509 61.72,38.62 41.619,54.609 C40.843,55.226 40.224,56.343 39.966,57.579 C36.747,73.008 36.743,129.959 39.954,142.273 C40.207,143.242 40.793,143.813 41.527,143.813 C41.551,143.813 41.575,143.813 41.599,143.811 C61.7,142.786 104.694,112.129 111.61,103.293 C112.217,102.517 112.995,101.58 113.256,100.357 C116.463,85.296 116.463,46.37 113.256,34.025 C113.004,33.054 112.418,32.481 111.682,32.481 L111.682,32.481 Z M105.086,42.485 C106.767,57.039 106.443,85.244 104.16,97.397 L104.128,97.438 C101.861,100.335 90.713,109.482 76.486,118.443 C65.434,125.404 55.439,130.44 48.145,132.813 C46.551,115.105 46.596,75.107 49.005,60.909 C66.185,48.085 90.501,43.868 105.086,42.485 L105.086,42.485 Z" id="Fill-15" fill="#2D2958"></path>
                <path d="M32.889,101.093 C32.891,85.414 33.553,65.495 35.406,56.613 C35.89,54.294 37.102,52.22 38.731,50.924 C48.272,43.335 60.609,37.44 75.398,33.403 C88.71,29.77 101.31,28.385 109.96,27.873 C109.866,27.841 109.78,27.79 109.682,27.765 C80.027,20.282 36.057,20.28 6.393,27.758 C5.247,28.047 4.334,28.902 3.954,30.028 C-0.797,44.094 -0.803,89.791 3.936,103.465 C4.321,104.576 5.231,105.414 6.364,105.7 C14.372,107.721 23.428,109.191 32.961,110.121 C32.911,107.053 32.888,104.01 32.889,101.093" id="Fill-16" fill="#1B1A3C"></path>
            </g>
        </g>
    </g>
</svg>